# xmcd
#
# Track frame offsets:
#	150
#	11683
#	24250
#	37192
#	50080
#	60057
#	71503
#	86002
#	99806
#	113264
#	129046
#	141786
#	155401
#	167582
#	180376
#
# Disc length: 2561 seconds
#
# Revision: 5
# Processed by: cddbd v1.5.2PL0 Copyright (c) Steve Scherf et al.
# Submitted via: audiograbber 1.83.01
#
DISCID=aa09ff0f
DTITLE=Various Artist - Mojo - Blues Breakers!
DYEAR=2013
DGENRE=Blues
TTITLE0=Otis Rush - All Your Love (I Miss Loving)
TTITLE1=Willie Mae 'Big Mama' Thornton - Hound Dog
TTITLE2=Little Walter - It Ain't Right
TTITLE3=Big Bill Broonzy - Hey, Hey 
TTITLE4=Elmore James - I Can't Hold Out [aka 'Talk to Me Baby'] 
TTITLE5=Arthur 'Big Boy' Crudup - Mean Old 'Frisco Blues 
TTITLE6=Eddie Boyd - Five Long Years
TTITLE7=Freddy King - Have You Ever Loved a Woman
TTITLE8=T-Bone Walker - Stormy Monday
TTITLE9=Leroy Carr - Blues Before Sunrise
TTITLE10=Bo Diddley - You Don't Love Me
TTITLE11=The Mississippi Sheiks - Sitting On Top of the World
TTITLE12=Howlin' Wolf - Spoonful
TTITLE13=Skip James - I'm So Glad
TTITLE14=Robert Johnson - Crossroads Blues
EXTD=
EXTT0=
EXTT1=
EXTT2=
EXTT3=
EXTT4=
EXTT5=
EXTT6=
EXTT7=
EXTT8=
EXTT9=
EXTT10=
EXTT11=
EXTT12=
EXTT13=
EXTT14=
PLAYORDER=
